{
    "asset" : {
        "generator" : "Khronos glTF Blender I/O v1.6.16",
        "version" : "2.0"
    },
    "scene" : 0,
    "scenes" : [
        {
            "name" : "Scene",
            "nodes" : [
                0,
                1,
                2
            ]
        }
    ],
    "nodes" : [
        {
            "name" : "Light",
            "rotation" : [
                0.16907575726509094,
                0.7558803558349609,
                -0.27217137813568115,
                0.570947527885437
            ],
            "translation" : [
                4.076245307922363,
                5.903861999511719,
                -1.0054539442062378
            ]
        },
        {
            "name" : "Camera",
            "rotation" : [
                0.483536034822464,
                0.33687159419059753,
                -0.20870360732078552,
                0.7804827094078064
            ],
            "translation" : [
                7.358891487121582,
                4.958309173583984,
                6.925790786743164
            ]
        },
        {
            "mesh" : 0,
            "name" : "head",
            "rotation" : [
                -0.006924392189830542,
                -0.4495619535446167,
                0.002706400817260146,
                0.8932182192802429
            ],
            "translation" : [
                0.07028170675039291,
                0.15379811823368073,
                0.013778803870081902
            ]
        }
    ],
    "meshes" : [
        {
            "name" : "head",
            "primitives" : [
                {
                    "attributes" : {
                        "POSITION" : 0,
                        "NORMAL" : 1
                    },
                    "indices" : 2
                }
            ]
        }
    ],
    "accessors" : [
        {
            "bufferView" : 0,
            "componentType" : 5126,
            "count" : 6932,
            "max" : [
                0.0873320996761322,
                0.35849887132644653,
                0.15960830450057983
            ],
            "min" : [
                -0.23692727088928223,
                -0.003909438848495483,
                -0.1595708727836609
            ],
            "type" : "VEC3"
        },
        {
            "bufferView" : 1,
            "componentType" : 5126,
            "count" : 6932,
            "type" : "VEC3"
        },
        {
            "bufferView" : 2,
            "componentType" : 5123,
            "count" : 40566,
            "type" : "SCALAR"
        }
    ],
    "bufferViews" : [
        {
            "buffer" : 0,
            "byteLength" : 83184,
            "byteOffset" : 0
        },
        {
            "buffer" : 0,
            "byteLength" : 83184,
            "byteOffset" : 83184
        },
        {
            "buffer" : 0,
            "byteLength" : 81132,
            "byteOffset" : 166368
        }
    ],
    "buffers" : [
        {
            "byteLength" : 247500,
            "uri" : "data:application/octet-stream;base64,"
        }
    ]
}
